<svg width="40" height="40" viewBox="0 0 40 40" fill="none" xmlns="http://www.w3.org/2000/svg">
<g clip-path="url(#clip0_1_2)">
<circle cx="9.85224" cy="20.5612" r="8.1967" transform="rotate(-45 9.85224 20.5612)" stroke="#875931" stroke-width="2"/>
<line x1="16.3386" y1="13.7967" x2="26.2381" y2="3.89717" stroke="#875931" stroke-width="2" stroke-linecap="round"/>
<path fill-rule="evenodd" clip-rule="evenodd" d="M24.6463 12.9173C21.8358 15.7278 21.8358 20.2845 24.6463 23.0949C27.4568 25.9054 32.0135 25.9054 34.8239 23.0949C37.6344 20.2845 37.6344 15.7278 34.8239 12.9173C32.0135 10.1068 27.4568 10.1068 24.6463 12.9173ZM23.2321 11.5031C19.6405 15.0946 19.6405 20.9176 23.2321 24.5092C26.8236 28.1007 32.6466 28.1007 36.2382 24.5092C39.8297 20.9176 39.8297 15.0946 36.2382 11.5031C32.6466 7.91152 26.8236 7.91152 23.2321 11.5031Z" fill="#1B5AC5"/>
<path fill-rule="evenodd" clip-rule="evenodd" d="M23.9559 24.0635C24.3464 24.4541 24.3464 25.0872 23.9559 25.4778L14.0564 35.3772C13.6658 35.7678 13.0327 35.7678 12.6421 35.3772C12.2516 34.9867 12.2516 34.3536 12.6421 33.963L22.5416 24.0635C22.9322 23.673 23.5653 23.673 23.9559 24.0635Z" fill="#1B5AC5"/>
</g>
<defs>
<clipPath id="clip0_1_2">
<rect width="40" height="40" fill="white"/>
</clipPath>
</defs>
</svg>
